<svg width="24" height="25" viewBox="0 0 24 25" fill="none" xmlns="http://www.w3.org/2000/svg">
<path d="M2.99997 13.4545H3.99997V20.4545C3.99997 21.5575 4.89697 22.4545 5.99997 22.4545H18C19.103 22.4545 20 21.5575 20 20.4545V13.4545H21C21.1977 13.4545 21.391 13.3958 21.5554 13.2859C21.7198 13.1761 21.848 13.0199 21.9236 12.8372C21.9993 12.6545 22.0191 12.4535 21.9806 12.2595C21.942 12.0656 21.8468 11.8874 21.707 11.7475L12.707 2.74754C12.6142 2.6546 12.504 2.58086 12.3827 2.53055C12.2613 2.48024 12.1313 2.45434 12 2.45434C11.8686 2.45434 11.7386 2.48024 11.6173 2.53055C11.496 2.58086 11.3858 2.6546 11.293 2.74754L2.29297 11.7475C2.15316 11.8874 2.05795 12.0656 2.01939 12.2595C1.98082 12.4535 2.00062 12.6545 2.07629 12.8372C2.15196 13.0199 2.2801 13.1761 2.44451 13.2859C2.60892 13.3958 2.80222 13.4545 2.99997 13.4545ZM12 4.86854L18 10.8685V15.4545L18.001 20.4545H5.99997V10.8685L12 4.86854Z" fill="#696CFF"/>
<path d="M12 18.4545C15.703 18.4545 16.901 14.9155 16.95 14.7655L15.05 14.1445C15.042 14.1675 14.269 16.4545 12 16.4545C9.76199 16.4545 8.97999 14.2335 8.94899 14.1385L7.04999 14.7655C7.09899 14.9155 8.29699 18.4545 12 18.4545Z" fill="#696CFF"/>
</svg>
