<svg width="20" height="21" viewBox="0 0 20 21" fill="none" xmlns="http://www.w3.org/2000/svg">
<path d="M11.4 0.550516C9.75116 0.324829 8.07207 0.510907 6.51263 1.09214C4.95319 1.67338 3.56192 2.63168 2.46302 3.88152C1.52252 4.9647 0.824704 6.2366 0.416442 7.61179C0.00817978 8.98698 -0.101074 10.4336 0.0960195 11.8545C0.626019 15.7485 3.55402 19.0615 7.38102 20.1005C8.23415 20.334 9.11452 20.453 9.99902 20.4545L10.141 20.4535C10.6466 20.447 11.1423 20.3129 11.5821 20.0636C12.022 19.8143 12.3917 19.4579 12.657 19.0275C12.9232 18.5995 13.0768 18.111 13.1036 17.6077C13.1303 17.1043 13.0293 16.6024 12.81 16.1485L12.611 15.7325C12.458 15.4335 12.3861 15.0995 12.4026 14.764C12.4191 14.4284 12.5234 14.1031 12.705 13.8205C12.9649 13.3983 13.3721 13.0874 13.8479 12.948C14.3237 12.8085 14.8343 12.8504 15.281 13.0655L15.693 13.2625C16.105 13.4605 16.543 13.5615 16.994 13.5615C17.7833 13.5575 18.5397 13.2448 19.1014 12.6903C19.6631 12.1359 19.9857 11.3837 20 10.5945C20.0124 9.66251 19.8936 8.7334 19.647 7.83452C18.607 4.00852 15.294 1.08052 11.4 0.550516ZM16.558 11.4595L16.146 11.2625C14.318 10.3845 12.076 11.0645 11.011 12.7565C10.273 13.9325 10.198 15.3325 10.807 16.5985L11.006 17.0145C11.0806 17.1656 11.1151 17.3334 11.1062 17.5017C11.0972 17.67 11.0452 17.8331 10.955 17.9755C10.8671 18.121 10.7434 18.2414 10.5956 18.3253C10.4478 18.4091 10.2809 18.4536 10.111 18.4545H9.99902C9.29129 18.4526 8.5869 18.3574 7.90402 18.1715C4.84102 17.3405 2.50102 14.6925 2.07802 11.5855C1.75702 9.23052 2.43002 6.96252 3.97102 5.19652C4.84776 4.19074 5.96207 3.42017 7.21258 2.95489C8.46309 2.48962 9.81008 2.34443 11.131 2.53252C14.238 2.95552 16.886 5.29652 17.717 8.35852C17.915 9.08852 18.01 9.83252 17.999 10.5655C17.987 11.3725 17.154 11.7485 16.558 11.4595Z" fill="#32475C" fill-opacity="0.68"/>
</svg>
