<svg width="20" height="21" viewBox="0 0 20 21" fill="none" xmlns="http://www.w3.org/2000/svg">
<path d="M18 0.454529H8C6.897 0.454529 6 1.35153 6 2.45453V6.45453H2C0.897 6.45453 0 7.35153 0 8.45453V18.4545C0 19.5575 0.897 20.4545 2 20.4545H12C13.103 20.4545 14 19.5575 14 18.4545V14.4545H18C19.103 14.4545 20 13.5575 20 12.4545V2.45453C20 1.35153 19.103 0.454529 18 0.454529ZM2 18.4545V8.45453H12L12.002 18.4545H2ZM18 12.4545H14V8.45453C14 7.35153 13.103 6.45453 12 6.45453H8V2.45453H18V12.4545Z" fill="#32475C" fill-opacity="0.68"/>
</svg>
