<svg width="58" height="58" viewBox="0 0 58 58" fill="none" xmlns="http://www.w3.org/2000/svg">
<g id="Discord">
<path id="Vector" opacity="0.2" d="M22.8828 41.2571L20.1414 46.6946C19.965 47.0654 19.665 47.3632 19.2929 47.5368C18.9208 47.7105 18.4998 47.7491 18.1023 47.6462C12.5516 46.2868 7.74844 43.9305 4.25937 40.8946C3.99633 40.6625 3.80531 40.3599 3.70894 40.0226C3.61257 39.6853 3.61489 39.3275 3.71562 38.9915L11.3961 13.3446C11.4708 13.0821 11.6061 12.8409 11.7911 12.6402C11.976 12.4395 12.2054 12.285 12.4609 12.1891C14.6309 11.2989 16.8749 10.6014 19.1672 10.1047C19.6077 10.0083 20.0683 10.0774 20.4611 10.2988C20.8539 10.5203 21.1514 10.8787 21.2969 11.3055L23.0867 16.7204C27.0102 16.1766 30.9899 16.1766 34.9133 16.7204L36.7031 11.3055C36.8486 10.8787 37.1461 10.5203 37.5389 10.2988C37.9317 10.0774 38.3923 10.0083 38.8328 10.1047C41.1251 10.6014 43.3691 11.2989 45.5391 12.1891C45.7946 12.285 46.024 12.4395 46.2089 12.6402C46.3939 12.8409 46.5292 13.0821 46.6039 13.3446L54.2844 38.9915C54.3851 39.3275 54.3874 39.6853 54.2911 40.0226C54.1947 40.3599 54.0037 40.6625 53.7406 40.8946C50.2516 43.9305 45.4484 46.2868 39.8977 47.6462C39.5002 47.7491 39.0792 47.7105 38.7071 47.5368C38.335 47.3632 38.035 47.0654 37.8586 46.6946L35.1172 41.2571C33.0906 41.5421 31.0466 41.6859 29 41.6876C26.9534 41.6859 24.9094 41.5421 22.8828 41.2571Z" fill="#32475C" fill-opacity="0.6"/>
<path id="Union" fill-rule="evenodd" clip-rule="evenodd" d="M24.4688 32.625C24.4688 34.1265 23.2515 35.3438 21.75 35.3438C20.2485 35.3438 19.0312 34.1265 19.0312 32.625C19.0312 31.1235 20.2485 29.9062 21.75 29.9062C23.2515 29.9062 24.4688 31.1235 24.4688 32.625ZM38.9688 32.625C38.9688 34.1265 37.7515 35.3438 36.25 35.3438C34.7485 35.3438 33.5312 34.1265 33.5312 32.625C33.5312 31.1235 34.7485 29.9062 36.25 29.9062C37.7515 29.9062 38.9688 31.1235 38.9688 32.625Z" fill="#32475C" fill-opacity="0.6"/>
<path id="Vector_2" d="M16.8562 18.1251C20.7854 16.8936 24.8825 16.2821 29 16.3126C33.1175 16.2821 37.2146 16.8936 41.1438 18.1251M41.1438 39.8751C37.2146 41.1065 33.1175 41.718 29 41.6876C24.8825 41.718 20.7854 41.1065 16.8562 39.8751M35.1172 41.2571L37.8586 46.6946C38.035 47.0654 38.335 47.3632 38.7071 47.5368C39.0792 47.7105 39.5002 47.7491 39.8977 47.6462C45.4484 46.2868 50.2516 43.9305 53.7406 40.8946C54.0037 40.6625 54.1947 40.3599 54.2911 40.0226C54.3874 39.6853 54.3851 39.3275 54.2844 38.9915L46.6039 13.3446C46.5292 13.0821 46.3939 12.8409 46.2089 12.6402C46.024 12.4395 45.7946 12.285 45.5391 12.1891C43.3691 11.2989 41.1251 10.6014 38.8328 10.1047C38.3923 10.0083 37.9317 10.0774 37.5389 10.2988C37.1461 10.5203 36.8486 10.8787 36.7031 11.3055L34.9133 16.7204M22.8828 41.2571L20.1414 46.6946C19.965 47.0654 19.665 47.3632 19.2929 47.5368C18.9208 47.7105 18.4998 47.7491 18.1023 47.6462C12.5516 46.2868 7.74844 43.9305 4.25937 40.8946C3.99633 40.6625 3.80531 40.3599 3.70894 40.0226C3.61257 39.6853 3.61489 39.3275 3.71562 38.9915L11.3961 13.3446C11.4708 13.0821 11.6061 12.8409 11.7911 12.6402C11.976 12.4395 12.2054 12.285 12.4609 12.1891C14.6309 11.2989 16.8749 10.6014 19.1672 10.1047C19.6077 10.0083 20.0683 10.0774 20.4611 10.2988C20.8539 10.5203 21.1514 10.8787 21.2969 11.3055L23.0867 16.7204" stroke="#32475C" stroke-opacity="0.6" stroke-width="2" stroke-linecap="round" stroke-linejoin="round"/>
</g>
</svg>
