<svg width="20" height="17" viewBox="0 0 20 17" fill="none" xmlns="http://www.w3.org/2000/svg">
<path d="M18 0.454529H2C0.897 0.454529 0 1.35153 0 2.45453V14.4545C0 15.5575 0.897 16.4545 2 16.4545H18C19.103 16.4545 20 15.5575 20 14.4545V2.45453C20 1.35153 19.103 0.454529 18 0.454529ZM18 2.45453V2.96553L10 9.18853L2 2.96653V2.45453H18ZM2 14.4545V5.49853L9.386 11.2435C9.56111 11.3811 9.77733 11.4558 10 11.4558C10.2227 11.4558 10.4389 11.3811 10.614 11.2435L18 5.49853L18.002 14.4545H2Z" fill="#32475C" fill-opacity="0.68"/>
</svg>
