<svg width="18" height="19" viewBox="0 0 18 19" fill="none" xmlns="http://www.w3.org/2000/svg">
<path d="M8.219 0.829511L5 4.85351L1.781 0.829511C1.65099 0.668793 1.47444 0.552222 1.27558 0.495778C1.07671 0.439333 0.865255 0.445778 0.670195 0.51423C0.475136 0.582682 0.306022 0.709789 0.186038 0.878126C0.0660531 1.04646 0.00107117 1.24779 0 1.45451V16.4545C0 17.5575 0.897 18.4545 2 18.4545H16C17.103 18.4545 18 17.5575 18 16.4545V1.45451C17.9989 1.24779 17.9339 1.04646 17.814 0.878126C17.694 0.709789 17.5249 0.582682 17.3298 0.51423C17.1347 0.445778 16.9233 0.439333 16.7244 0.495778C16.5256 0.552222 16.349 0.668793 16.219 0.829511L13 4.85351L9.781 0.829511C9.4 0.355511 8.6 0.355511 8.219 0.829511ZM2 16.4545V14.4545H16.001V16.4545H2ZM12.219 7.07951C12.6 7.55451 13.401 7.55451 13.782 7.07951L16 4.30551L16.001 12.4545H2V4.30551L4.219 7.07951C4.6 7.55451 5.401 7.55451 5.782 7.07951L9 3.05551L12.219 7.07951Z" fill="#32475C" fill-opacity="0.68"/>
</svg>
