<svg width="18" height="21" viewBox="0 0 18 21" fill="none" xmlns="http://www.w3.org/2000/svg">
<path d="M0 4.45453V18.4545C0 18.985 0.210714 19.4937 0.585786 19.8687C0.960859 20.2438 1.46957 20.4545 2 20.4545H16C16.5304 20.4545 17.0391 20.2438 17.4142 19.8687C17.7893 19.4937 18 18.985 18 18.4545V4.45453C18 3.9241 17.7893 3.41539 17.4142 3.04032C17.0391 2.66524 16.5304 2.45453 16 2.45453H14V0.454529H12V2.45453H6V0.454529H4V2.45453H2C1.46957 2.45453 0.960859 2.66524 0.585786 3.04032C0.210714 3.41539 0 3.9241 0 4.45453ZM16 18.4545H2V6.45453H16V18.4545Z" fill="#32475C" fill-opacity="0.6"/>
</svg>
