<svg width="58" height="58" viewBox="0 0 58 58" fill="none" xmlns="http://www.w3.org/2000/svg">
<g id="Lightbulb">
<path id="Vector" opacity="0.2" d="M17.8305 37.8359C15.6727 36.1581 13.925 34.0112 12.7199 31.5579C11.5149 29.1045 10.8839 26.4091 10.875 23.6757C10.8297 13.8429 18.7367 5.66403 28.5695 5.43747C32.375 5.34725 36.1123 6.45746 39.2514 8.61062C42.3905 10.7638 44.772 13.8506 46.0581 17.4333C47.3443 21.016 47.4698 24.9127 46.4169 28.5707C45.364 32.2288 43.1862 35.4625 40.1922 37.8132C39.5308 38.3245 38.9951 38.9802 38.626 39.7302C38.2568 40.4802 38.0641 41.3047 38.0625 42.1406V43.5C38.0625 43.9807 37.8715 44.4417 37.5316 44.7816C37.1917 45.1215 36.7307 45.3125 36.25 45.3125H21.75C21.2693 45.3125 20.8083 45.1215 20.4684 44.7816C20.1285 44.4417 19.9375 43.9807 19.9375 43.5V42.1406C19.9318 41.3109 19.7395 40.4932 19.3747 39.748C19.01 39.0028 18.4822 38.3493 17.8305 37.8359Z" fill="#32475C" fill-opacity="0.6"/>
<path id="Union" fill-rule="evenodd" clip-rule="evenodd" d="M38.6856 9.43527C35.7197 7.4009 32.1886 6.35195 28.5931 6.43719L28.5924 6.4372C28.3513 6.44275 28.1115 6.45338 27.873 6.46896L28.5463 4.43773C32.5616 4.34269 36.5048 5.51414 39.8169 7.78597C43.1292 10.0579 45.642 13.3151 46.9992 17.0954C48.3563 20.8758 48.4887 24.9875 47.3778 28.8473C46.2668 32.7072 43.9687 36.1193 40.8096 38.5998L40.8036 38.6045L40.8036 38.6044C40.2628 39.0224 39.8248 39.5585 39.523 40.1717C39.2214 40.7847 39.0638 41.4585 39.0623 42.1416L39.0623 42.1425L39.0623 43.5C39.0623 44.2459 38.766 44.9613 38.2386 45.4887C37.7111 46.0162 36.9958 46.3125 36.2498 46.3125H21.7498C21.0039 46.3125 20.2886 46.0162 19.7611 45.4887C19.2337 44.9613 18.9373 44.2459 18.9373 43.5V42.1441C18.9322 41.4657 18.7747 40.7971 18.4764 40.1877C18.178 39.5781 17.7465 39.0434 17.2136 38.6231L17.8865 36.5936C18.0689 36.7483 18.2549 36.8993 18.4441 37.0465L17.8303 37.836L18.4491 37.0504C19.2188 37.6567 19.842 38.4284 20.2728 39.3084C20.7035 40.1884 20.9306 41.154 20.9373 42.1338L20.9374 42.1406L20.9373 43.5C20.9373 43.7155 21.0229 43.9221 21.1753 44.0745C21.3277 44.2269 21.5344 44.3125 21.7498 44.3125H36.2498C36.4653 44.3125 36.672 44.2269 36.8244 44.0745C36.9767 43.9221 37.0623 43.7155 37.0623 43.5V42.1406V42.1387C37.0643 41.1503 37.2921 40.1754 37.7286 39.2886C38.1645 38.4029 38.7968 37.6285 39.5774 37.0244C42.4047 34.8035 44.4613 31.7492 45.4558 28.2941C46.4506 24.8379 46.332 21.1562 45.1168 17.7712C43.9016 14.3862 41.6515 11.4696 38.6856 9.43527ZM17.8864 36.5936L17.8865 36.5936L27.873 6.46896L27.8723 6.469L28.5457 4.43775C18.165 4.67729 9.8274 13.3058 9.87485 23.6797C9.8844 26.5645 10.5503 29.4094 11.8222 31.9987C13.0937 34.5872 14.9374 36.8525 17.2136 38.6231L17.8864 36.5936ZM17.8864 36.5936C16.104 35.0827 14.6498 33.2189 13.6174 31.117C12.4792 28.7998 11.8833 26.254 11.8748 23.6725L11.8748 23.6711C11.8331 14.6214 18.9245 7.05389 27.8723 6.469L17.8864 36.5936ZM18.9375 52.5625C18.9375 52.0102 19.3852 51.5625 19.9375 51.5625H38.0625C38.6148 51.5625 39.0625 52.0102 39.0625 52.5625C39.0625 53.1148 38.6148 53.5625 38.0625 53.5625H19.9375C19.3852 53.5625 18.9375 53.1148 18.9375 52.5625ZM31.0023 11.8828C30.4578 11.7905 29.9415 12.1571 29.8492 12.7016C29.7569 13.2461 30.1235 13.7624 30.668 13.8547C32.6792 14.1956 34.5349 15.1524 35.9791 16.5929C37.4234 18.0334 38.3848 19.8867 38.7309 21.897C38.8246 22.4413 39.3418 22.8065 39.8861 22.7129C40.4303 22.6192 40.7956 22.102 40.7019 21.5577C40.2856 19.1394 39.1289 16.9098 37.3915 15.1769C35.6541 13.4439 33.4217 12.293 31.0023 11.8828Z" fill="#32475C" fill-opacity="0.6"/>
</g>
</svg>
