<svg width="4" height="17" viewBox="0 0 4 17" fill="none" xmlns="http://www.w3.org/2000/svg">
<path d="M2 6.45459C0.9 6.45459 0 7.35459 0 8.45459C0 9.55459 0.9 10.4546 2 10.4546C3.1 10.4546 4 9.55459 4 8.45459C4 7.35459 3.1 6.45459 2 6.45459ZM2 0.45459C0.9 0.45459 0 1.35459 0 2.45459C0 3.55459 0.9 4.45459 2 4.45459C3.1 4.45459 4 3.55459 4 2.45459C4 1.35459 3.1 0.45459 2 0.45459ZM2 12.4546C0.9 12.4546 0 13.3546 0 14.4546C0 15.5546 0.9 16.4546 2 16.4546C3.1 16.4546 4 15.5546 4 14.4546C4 13.3546 3.1 12.4546 2 12.4546Z" fill="#32475C" fill-opacity="0.68"/>
</svg>
