<svg width="16" height="21" viewBox="0 0 16 21" fill="none" xmlns="http://www.w3.org/2000/svg">
<path d="M15.937 7.13453C15.926 7.10253 15.917 7.07153 15.904 7.04053C15.8566 6.932 15.7902 6.83278 15.708 6.74753L9.708 0.747529C9.62275 0.665311 9.52353 0.59894 9.415 0.551529C9.385 0.537529 9.353 0.529529 9.321 0.518529C9.23733 0.490055 9.15022 0.472903 9.062 0.467529C9.04 0.465529 9.021 0.454529 9 0.454529H2C0.897 0.454529 0 1.35153 0 2.45453V18.4545C0 19.5575 0.897 20.4545 2 20.4545H14C15.103 20.4545 16 19.5575 16 18.4545V7.45453C16 7.43353 15.989 7.41453 15.987 7.39253C15.9819 7.30469 15.9651 7.21793 15.937 7.13453ZM12.586 6.45453H10V3.86853L12.586 6.45453ZM2 18.4545V2.45453H8V7.45453C8 7.71975 8.10536 7.9741 8.29289 8.16164C8.48043 8.34917 8.73478 8.45453 9 8.45453H14L14.002 18.4545H2Z" fill="#32475C" fill-opacity="0.68"/>
</svg>
