<svg width="58" height="58" viewBox="0 0 58 58" fill="none" xmlns="http://www.w3.org/2000/svg">
<path opacity="0.2" fill-rule="evenodd" clip-rule="evenodd" d="M48.2351 33.6218L41.1211 25.0804C41.393 30.314 40.1016 36.4086 36.1141 43.364L42.9109 48.8015C43.1526 48.9935 43.4393 49.1205 43.7438 49.1706C44.0484 49.2207 44.3607 49.1922 44.6511 49.0879C44.9415 48.9835 45.2005 48.8067 45.4035 48.5742C45.6065 48.3417 45.7467 48.0612 45.8109 47.7593L48.5976 35.1625C48.6648 34.8954 48.667 34.6161 48.6039 34.348C48.5408 34.08 48.4144 33.8309 48.2351 33.6218ZM9.62888 33.7578L16.7429 25.239C16.4711 30.4726 17.7625 36.5672 21.75 43.5L14.9531 48.9375C14.7129 49.1294 14.4279 49.257 14.1248 49.3084C13.8217 49.3598 13.5106 49.3333 13.2206 49.2314C12.9305 49.1294 12.6712 48.9554 12.467 48.7256C12.2628 48.4958 12.1203 48.2179 12.0531 47.9179L9.26638 35.2984C9.1992 35.0313 9.19705 34.7521 9.26013 34.484C9.3232 34.2159 9.44966 33.9669 9.62888 33.7578Z" fill="#32475C" fill-opacity="0.6"/>
<path fill-rule="evenodd" clip-rule="evenodd" d="M27.235 3.71099C27.7312 3.30007 28.3554 3.0751 28.9999 3.0751C29.6459 3.0751 30.2715 3.30114 30.7683 3.71391C32.9647 5.50221 37.7192 9.93868 40.3437 16.7606C41.2551 19.1296 41.9046 21.7739 42.1067 24.6785L49.1354 33.1129C49.416 33.4423 49.6141 33.8337 49.7132 34.255C49.8117 34.6734 49.8096 35.1092 49.7073 35.5266L46.9233 48.1336L46.9226 48.1367C46.8183 48.6022 46.5973 49.0334 46.2804 49.39C45.9635 49.7465 45.5611 50.0166 45.1111 50.1748C44.661 50.333 44.1782 50.3741 43.7079 50.2944C43.2376 50.2146 42.7953 50.0165 42.4226 49.7187L42.4222 49.7184L35.8992 44.5H22.1007L15.5778 49.7184L15.5773 49.7187C15.2046 50.0165 14.7624 50.2146 14.2921 50.2944C13.8218 50.3741 13.3389 50.333 12.8889 50.1748C12.4389 50.0166 12.0365 49.7465 11.7196 49.39C11.4027 49.0334 11.1817 48.6022 11.0773 48.1367L11.0766 48.1336L8.29268 35.5267C8.19032 35.1092 8.18824 34.6735 8.28671 34.255C8.38587 33.8335 8.58413 33.4418 8.86498 33.1124L15.7606 24.8552C15.9445 21.877 16.6066 19.1695 17.5467 16.7491C20.1971 9.92538 25.0133 5.48957 27.235 3.71099ZM40.1374 25.2385C40.1225 25.1573 40.1179 25.0748 40.1232 24.9929C39.9491 22.2127 39.3336 19.7051 38.4771 17.4787C36.0283 11.1135 31.5663 6.942 29.5015 5.26155L29.4916 5.25352L29.4916 5.25346C29.3537 5.13823 29.1796 5.0751 28.9999 5.0751C28.8201 5.0751 28.646 5.13823 28.5081 5.25346L28.4917 5.26681C26.4054 6.93591 21.8836 11.1072 19.411 17.4732C18.5219 19.7623 17.8919 22.3492 17.7428 25.2243C17.7435 25.2674 17.7414 25.3105 17.7365 25.3535C17.5077 30.253 18.6768 35.9841 22.3314 42.5H35.6625C39.2712 35.9325 40.398 30.1631 40.1374 25.2385ZM47.6029 34.398L42.1455 27.8492C41.9426 32.4348 40.608 37.5835 37.5337 43.2463L43.6711 48.1562C43.7787 48.2423 43.9065 48.2995 44.0424 48.3225C44.1782 48.3456 44.3177 48.3337 44.4477 48.288C44.5777 48.2423 44.694 48.1643 44.7855 48.0613C44.8768 47.9586 44.9406 47.8344 44.9708 47.7003L44.9711 47.6992L47.7571 35.0828L47.7605 35.0682L47.7638 35.0545C47.792 34.9425 47.7929 34.8254 47.7664 34.713C47.74 34.6006 47.687 34.4962 47.6118 34.4086L47.6028 34.398L47.6029 34.398ZM15.7471 27.9916L10.3964 34.3988L10.3882 34.4086L10.3881 34.4086C10.313 34.4962 10.26 34.6007 10.2335 34.713C10.2071 34.8254 10.208 34.9425 10.2362 35.0545C10.2385 35.0639 10.2408 35.0733 10.2429 35.0828L13.0289 47.6992L13.0292 47.7004C13.0594 47.8344 13.1232 47.9586 13.2144 48.0613C13.306 48.1643 13.4222 48.2423 13.5522 48.288C13.6822 48.3337 13.8217 48.3456 13.9576 48.3225C14.0934 48.2995 14.2212 48.2423 14.3289 48.1562L20.4604 43.251C17.3566 37.6471 15.985 32.5443 15.7471 27.9916ZM24.375 50.75C24.375 50.1977 24.8227 49.75 25.375 49.75H32.625C33.1773 49.75 33.625 50.1977 33.625 50.75C33.625 51.3023 33.1773 51.75 32.625 51.75H25.375C24.8227 51.75 24.375 51.3023 24.375 50.75ZM31.7187 21.75C31.7187 23.2515 30.5015 24.4687 29 24.4687C27.4985 24.4687 26.2812 23.2515 26.2812 21.75C26.2812 20.2485 27.4985 19.0312 29 19.0312C30.5015 19.0312 31.7187 20.2485 31.7187 21.75Z" fill="#32475C" fill-opacity="0.6"/>
</svg>
