<svg width="16" height="21" viewBox="0 0 16 21" fill="none" xmlns="http://www.w3.org/2000/svg">
<path d="M8 0.454529C5.243 0.454529 3 2.69753 3 5.45453V7.45453H2C0.897 7.45453 0 8.35153 0 9.45453V18.4545C0 19.5575 0.897 20.4545 2 20.4545H14C15.103 20.4545 16 19.5575 16 18.4545V9.45453C16 8.35153 15.103 7.45453 14 7.45453H13V5.45453C13 2.69753 10.757 0.454529 8 0.454529ZM5 5.45453C5 3.80053 6.346 2.45453 8 2.45453C9.654 2.45453 11 3.80053 11 5.45453V7.45453H5V5.45453ZM14.002 18.4545H9V16.1765C9.595 15.8295 10 15.1915 10 14.4545C10 13.3515 9.103 12.4545 8 12.4545C6.897 12.4545 6 13.3515 6 14.4545C6 15.1905 6.405 15.8295 7 16.1765V18.4545H2V9.45453H14L14.002 18.4545Z" fill="#32475C" fill-opacity="0.68"/>
</svg>
