<svg width="22" height="33" viewBox="0 0 22 33" fill="none" xmlns="http://www.w3.org/2000/svg">
<g clip-path="url(#clip0_14050_4889)">
<path d="M12.0796 0.00576019C9.95808 0.170311 10.1016 2.46787 10.6577 3.0613C9.07748 4.14596 5.27528 6.75468 2.70806 8.51212C0.486405 10.033 -0.336909 13.8426 0.444917 16.3305C1.20409 18.7463 4.99644 20.5446 7.01376 21.0902C7.01376 21.0902 4.6878 22.4108 2.64171 24.0193C0.595605 25.6278 -0.248765 27.7374 1.22762 30.1048C2.70401 32.4722 5.09028 32.3044 7.01056 31.4492C8.93084 30.5939 12.8676 27.6677 15.1764 26.0653C17.0916 24.6164 17.587 21.4578 16.7055 18.7857C15.9906 16.6187 12.039 14.5714 10.072 13.8426C10.8781 13.2638 12.9977 11.7697 14.8519 10.4364C15.4876 12.2254 17.6002 12.0848 18.2444 11.1284C19.0489 9.37304 20.7338 5.38652 21.5834 3.4207C21.9548 1.92417 21.0258 1.11383 20.0894 0.943751C18.7472 0.699999 15.3292 0.384045 12.0796 0.00576019Z" fill="#696CFF"/>
<path d="M10.6606 3.0625C9.97932 2.25 10.1292 0.102123 12.1165 0.00421143C13.2026 0.130644 14.3118 0.25074 15.3559 0.363791C17.4358 0.588984 19.2575 0.786224 20.124 0.94992C21.0929 1.13294 21.954 2.02429 21.5814 3.44441C21.2822 4.13672 20.8826 5.06584 20.4589 6.05128C19.6794 7.86404 18.818 9.8674 18.3483 10.9378C17.8886 11.9856 15.644 12.4234 14.8451 10.438C12.9909 11.7713 10.915 13.2622 10.1088 13.841C9.97204 13.7821 9.7226 13.6952 9.4046 13.5845C8.34728 13.2163 6.53204 12.5841 5.57872 11.8386C3.84509 10.2367 4.65 7.78648 5.26912 6.7616C7.13056 5.48732 8.29632 4.68644 9.399 3.92894C9.81712 3.64171 10.2261 3.36071 10.6606 3.0625Z" fill="white" fill-opacity="0.2"/>
<path d="M7.01729 21.0906C8.48973 21.595 11.4215 22.8204 12.0365 23.6404C12.8052 24.6654 13.2631 25.736 11.7012 28.4816C11.4382 28.6592 11.1929 28.8253 10.9628 28.9811C8.87821 30.3927 8.04349 30.9578 6.64981 31.6212C5.43429 32.0986 2.64639 32.6841 1.06632 29.8261C-0.44697 27.0889 1.29536 25.0845 2.63861 24.026L4.86789 22.4136L5.93445 21.7391L7.01729 21.0906Z" fill="white" fill-opacity="0.2"/>
</g>
<defs>
<clipPath id="clip0_14050_4889">
<rect width="22" height="32.4" fill="white"/>
</clipPath>
</defs>
</svg>
