<svg width="20" height="19" viewBox="0 0 20 19" fill="none" xmlns="http://www.w3.org/2000/svg">
<path d="M2 18.4546H17.893C18.996 18.4546 19.893 17.5576 19.893 16.4546V2.45459C19.893 1.35159 18.996 0.45459 17.893 0.45459H2C0.897 0.45459 0 1.35159 0 2.45459V16.4546C0 17.5576 0.897 18.4546 2 18.4546ZM2 16.4546V11.4546H6V16.4546H2ZM12 4.45459V9.45459H8V4.45459H12ZM6 4.45459V9.45459H2V4.45459H6ZM8 16.4546V11.4546H12V16.4546H8ZM14 16.4546V11.4546H17.894V16.4546H14ZM17.893 9.45459H14V4.45459H17.893V9.45459Z" fill="#32475C" fill-opacity="0.68"/>
</svg>
