<svg width="18" height="20" viewBox="0 0 18 20" fill="none" xmlns="http://www.w3.org/2000/svg">
<path d="M9 0.454529C8.01109 0.454529 7.04439 0.747774 6.22215 1.29718C5.3999 1.84659 4.75904 2.62748 4.3806 3.54111C4.00216 4.45474 3.90315 5.46008 4.09607 6.42998C4.289 7.39989 4.7652 8.2908 5.46447 8.99006C6.16373 9.68933 7.05464 10.1655 8.02455 10.3585C8.99445 10.5514 9.99979 10.4524 10.9134 10.0739C11.827 9.69549 12.6079 9.05463 13.1573 8.23238C13.7068 7.41013 14 6.44344 14 5.45453C14 4.12845 13.4732 2.85668 12.5355 1.91899C11.5979 0.981313 10.3261 0.454529 9 0.454529ZM9 8.45453C8.40666 8.45453 7.82664 8.27858 7.33329 7.94894C6.83994 7.61929 6.45542 7.15076 6.22836 6.60258C6.0013 6.0544 5.94189 5.4512 6.05764 4.86926C6.1734 4.28731 6.45912 3.75277 6.87868 3.33321C7.29824 2.91365 7.83279 2.62793 8.41473 2.51217C8.99667 2.39642 9.59987 2.45583 10.1481 2.68289C10.6962 2.90995 11.1648 3.29447 11.4944 3.78782C11.8241 4.28117 12 4.86119 12 5.45453C12 6.25018 11.6839 7.01324 11.1213 7.57585C10.5587 8.13846 9.79565 8.45453 9 8.45453ZM18 19.4545V18.4545C18 16.598 17.2625 14.8175 15.9497 13.5048C14.637 12.192 12.8565 11.4545 11 11.4545H7C5.14348 11.4545 3.36301 12.192 2.05025 13.5048C0.737498 14.8175 0 16.598 0 18.4545V19.4545H2V18.4545C2 17.1284 2.52678 15.8567 3.46447 14.919C4.40215 13.9813 5.67392 13.4545 7 13.4545H11C12.3261 13.4545 13.5979 13.9813 14.5355 14.919C15.4732 15.8567 16 17.1284 16 18.4545V19.4545H18Z" fill="#32475C" fill-opacity="0.68"/>
</svg>
