<svg width="22" height="15" viewBox="0 0 22 15" fill="none" xmlns="http://www.w3.org/2000/svg">
<path d="M11.0003 0.399994C3.36729 0.399994 1.07329 7.01699 1.05229 7.08399L0.946289 7.39999L1.05129 7.71599C1.07329 7.78299 3.36729 14.4 11.0003 14.4C18.6333 14.4 20.9273 7.78299 20.9483 7.71599L21.0543 7.39999L20.9493 7.08399C20.9273 7.01699 18.6333 0.399994 11.0003 0.399994ZM11.0003 12.4C5.64929 12.4 3.57629 8.55399 3.07429 7.39999C3.57829 6.24199 5.65229 2.39999 11.0003 2.39999C16.3513 2.39999 18.4243 6.24599 18.9263 7.39999C18.4223 8.55799 16.3483 12.4 11.0003 12.4Z" fill="#32475C" fill-opacity="0.54"/>
</svg>
