<svg width="16" height="5" viewBox="0 0 16 5" fill="none" xmlns="http://www.w3.org/2000/svg">
<path d="M8 0.45459C6.9 0.45459 6 1.35459 6 2.45459C6 3.55459 6.9 4.45459 8 4.45459C9.1 4.45459 10 3.55459 10 2.45459C10 1.35459 9.1 0.45459 8 0.45459ZM14 0.45459C12.9 0.45459 12 1.35459 12 2.45459C12 3.55459 12.9 4.45459 14 4.45459C15.1 4.45459 16 3.55459 16 2.45459C16 1.35459 15.1 0.45459 14 0.45459ZM2 0.45459C0.9 0.45459 0 1.35459 0 2.45459C0 3.55459 0.9 4.45459 2 4.45459C3.1 4.45459 4 3.55459 4 2.45459C4 1.35459 3.1 0.45459 2 0.45459Z" fill="#32475C" fill-opacity="0.68"/>
</svg>
